<?xml version="1.0" encoding="utf-8"?>
<!-- Generator: Adobe Illustrator 19.0.1, SVG Export Plug-In . SVG Version: 6.00 Build 0)  -->
<svg version="1.1" id="roll.ecga.me" xmlns="http://www.w3.org/2000/svg" xmlns:xlink="http://www.w3.org/1999/xlink" x="0px"
	 y="0px" viewBox="-307 307.7 111 111" style="enable-background:new -307 307.7 111 111;" xml:space="preserve">
<style type="text/css">
	.st0{fill:#040000;}
</style>
<g>
	<rect x="-262" y="319.7" class="st0" width="9" height="3"/>
	<rect x="-244" y="319.7" class="st0" width="9" height="3"/>
	<path class="st0" d="M-229,319.7v21h21v-21H-229z M-211,337.7h-15v-15h15V337.7z"/>
	<polygon class="st0" points="-265,319.7 -268,319.7 -268,322.7 -271,322.7 -271,325.7 -265,325.7 	"/>
	<rect x="-289" y="325.7" class="st0" width="9" height="9"/>
	<polygon class="st0" points="-238,325.7 -238,331.7 -235,331.7 -235,328.7 -232,328.7 -232,322.7 -235,322.7 -235,325.7 	"/>
	<rect x="-223" y="325.7" class="st0" width="9" height="9"/>
	<polygon class="st0" points="-241,340.7 -244,340.7 -244,343.7 -241,343.7 -241,346.7 -238,346.7 -238,337.7 -235,337.7 
		-235,343.7 -232,343.7 -232,334.7 -238,334.7 -238,331.7 -241,331.7 	"/>
	<path class="st0" d="M-274,319.7h-21v21h21V319.7z M-277,337.7h-15v-15h15V337.7z"/>
	<polygon class="st0" points="-265,340.7 -268,340.7 -268,337.7 -265,337.7 -265,340.7 -262,340.7 -262,337.7 -259,337.7 
		-259,331.7 -256,331.7 -256,334.7 -253,334.7 -253,343.7 -250,343.7 -250,334.7 -247,334.7 -247,340.7 -244,340.7 -244,328.7 
		-241,328.7 -241,325.7 -244,325.7 -244,322.7 -247,322.7 -247,319.7 -250,319.7 -250,322.7 -253,322.7 -253,325.7 -250,325.7 
		-250,328.7 -247,328.7 -247,331.7 -250,331.7 -250,328.7 -259,328.7 -259,325.7 -262,325.7 -262,328.7 -262,331.7 -265,331.7 
		-265,328.7 -268,328.7 -268,334.7 -271,334.7 -271,343.7 -265,343.7 	"/>
	<polygon class="st0" points="-259,346.7 -256,346.7 -256,337.7 -259,337.7 -259,340.7 -262,340.7 -262,343.7 -259,343.7 	"/>
	<polygon class="st0" points="-211,343.7 -214,343.7 -214,346.7 -223,346.7 -223,343.7 -229,343.7 -229,349.7 -220,349.7 
		-220,352.7 -223,352.7 -223,355.7 -220,355.7 -220,358.7 -217,358.7 -217,352.7 -214,352.7 -214,349.7 -211,349.7 -211,352.7 
		-214,352.7 -214,355.7 -211,355.7 -211,367.7 -208,367.7 -208,346.7 -211,346.7 	"/>
	<polygon class="st0" points="-277,346.7 -274,346.7 -274,349.7 -271,349.7 -271,343.7 -283,343.7 -283,346.7 -280,346.7 
		-280,349.7 -277,349.7 	"/>
	<polygon class="st0" points="-241,346.7 -247,346.7 -247,343.7 -250,343.7 -250,352.7 -247,352.7 -247,355.7 -250,355.7 
		-250,358.7 -247,358.7 -247,361.7 -244,361.7 -244,358.7 -241,358.7 -241,361.7 -238,361.7 -238,358.7 -232,358.7 -232,355.7 
		-238,355.7 -238,349.7 -241,349.7 	"/>
	<polygon class="st0" points="-235,349.7 -235,352.7 -232,352.7 -232,346.7 -238,346.7 -238,349.7 	"/>
	<rect x="-277" y="349.7" class="st0" width="3" height="3"/>
	<rect x="-256" y="349.7" class="st0" width="3" height="3"/>
	<polygon class="st0" points="-286,355.7 -286,352.7 -289,352.7 -289,346.7 -295,346.7 -295,349.7 -292,349.7 -292,352.7 
		-295,352.7 -295,355.7 -292,355.7 -292,358.7 -295,358.7 -295,361.7 -292,361.7 -292,364.7 -289,364.7 -289,355.7 	"/>
	<rect x="-286" y="358.7" class="st0" width="3" height="3"/>
	<rect x="-253" y="358.7" class="st0" width="3" height="3"/>
	<polygon class="st0" points="-223,361.7 -226,361.7 -226,358.7 -229,358.7 -229,367.7 -217,367.7 -217,364.7 -220,364.7 
		-220,358.7 -223,358.7 	"/>
	<rect x="-217" y="358.7" class="st0" width="3" height="3"/>
	<rect x="-277" y="361.7" class="st0" width="6" height="3"/>
	<rect x="-289" y="364.7" class="st0" width="3" height="3"/>
	<path class="st0" d="M-250,364.7h-3v3h-3v-9h3v-3h-3v-3h-3v-3h-3v-6h-3v12h-3v-3h-6v3h-3v-3h-3v-3h-6v3h3v6h12v3h3v6h-3v3h3v3h6v3
		h3v3h3v9h3v3h3v-3h3v-3h-6v-3h6v-3h6v-3h-6v-3h-3v-3h3v-3h-3V364.7z M-256,373.7h-3v-3h-6v-6h6v6h3V373.7z M-250,379.7h-3v-3h3
		V379.7z"/>
	<rect x="-247" y="364.7" class="st0" width="3" height="3"/>
	<polygon class="st0" points="-235,370.7 -232,370.7 -232,361.7 -235,361.7 -235,364.7 -241,364.7 -241,367.7 -235,367.7 	"/>
	<rect x="-277" y="367.7" class="st0" width="3" height="3"/>
	<rect x="-214" y="367.7" class="st0" width="3" height="3"/>
	<polygon class="st0" points="-280,370.7 -280,367.7 -277,367.7 -277,364.7 -283,364.7 -283,367.7 -286,367.7 -286,370.7 
		-289,370.7 -289,367.7 -292,367.7 -292,370.7 -295,370.7 -295,373.7 -289,373.7 -289,379.7 -286,379.7 -286,376.7 -283,376.7 
		-283,373.7 -277,373.7 -277,370.7 	"/>
	<rect x="-274" y="370.7" class="st0" width="3" height="3"/>
	<rect x="-277" y="373.7" class="st0" width="3" height="3"/>
	<polygon class="st0" points="-271,376.7 -271,379.7 -268,379.7 -268,376.7 -268,373.7 -271,373.7 	"/>
	<polygon class="st0" points="-214,376.7 -214,382.7 -211,382.7 -211,379.7 -208,379.7 -208,370.7 -211,370.7 -211,376.7 	"/>
	<rect x="-280" y="376.7" class="st0" width="3" height="3"/>
	<polygon class="st0" points="-265,388.7 -259,388.7 -259,385.7 -262,385.7 -262,382.7 -259,382.7 -259,379.7 -262,379.7 
		-262,376.7 -265,376.7 	"/>
	<rect x="-295" y="379.7" class="st0" width="6" height="3"/>
	<rect x="-283" y="379.7" class="st0" width="3" height="3"/>
	<polygon class="st0" points="-274,379.7 -277,379.7 -277,382.7 -274,382.7 -271,382.7 -271,379.7 	"/>
	<rect x="-217" y="382.7" class="st0" width="3" height="3"/>
	<path class="st0" d="M-295,406.7h21v-21h-21V406.7z M-292,388.7h15v15h-15V388.7z"/>
	<rect x="-229" y="385.7" class="st0" width="3" height="3"/>
	<rect x="-211" y="382.7" class="st0" width="3" height="6"/>
	<rect x="-259" y="388.7" class="st0" width="3" height="3"/>
	<path class="st0" d="M-217,391.7v-3h-3v-6h3v-6h3v-6h-3v3h-3v-3h-9v3h3v3h3v3h-9v-3h-3v-6h-6v-3h-3v3v3h6v6h3v3h-9v9h3v3h3v3h3v-3
		h3v3h3v-3h3v9h3v-9h3v-3H-217z M-223,391.7h-9v-9h9V391.7z"/>
	<polygon class="st0" points="-214,391.7 -214,394.7 -220,394.7 -220,400.7 -217,400.7 -217,397.7 -214,397.7 -214,406.7 
		-211,406.7 -211,403.7 -208,403.7 -208,397.7 -211,397.7 -211,394.7 -208,394.7 -208,391.7 -211,391.7 -211,388.7 -214,388.7 	"/>
	<rect x="-289" y="391.7" class="st0" width="9" height="9"/>
	<polygon class="st0" points="-268,391.7 -268,382.7 -271,382.7 -271,394.7 -265,394.7 -265,391.7 	"/>
	<rect x="-262" y="391.7" class="st0" width="3" height="3"/>
	<rect x="-250" y="391.7" class="st0" width="3" height="3"/>
	<rect x="-265" y="394.7" class="st0" width="3" height="3"/>
	<polygon class="st0" points="-256,394.7 -259,394.7 -259,400.7 -262,400.7 -262,403.7 -265,403.7 -265,406.7 -259,406.7 
		-259,403.7 -253,403.7 -253,397.7 -256,397.7 	"/>
	<rect x="-253" y="394.7" class="st0" width="3" height="3"/>
	<rect x="-268" y="397.7" class="st0" width="3" height="3"/>
	<rect x="-244" y="397.7" class="st0" width="3" height="3"/>
	<rect x="-250" y="400.7" class="st0" width="3" height="3"/>
	<rect x="-247" y="403.7" class="st0" width="3" height="3"/>
	<polygon class="st0" points="-238,400.7 -241,400.7 -241,406.7 -226,406.7 -226,403.7 -238,403.7 	"/>
	<rect x="-223" y="403.7" class="st0" width="6" height="3"/>
</g>
</svg>
