<?xml version="1.0" encoding="utf-8"?>
<!-- Generator: Adobe Illustrator 17.1.0, SVG Export Plug-In . SVG Version: 6.00 Build 0)  -->
<!DOCTYPE svg PUBLIC "-//W3C//DTD SVG 1.1//EN" "http://www.w3.org/Graphics/SVG/1.1/DTD/svg11.dtd">
<svg version="1.1" id="图层_1" xmlns="http://www.w3.org/2000/svg" xmlns:xlink="http://www.w3.org/1999/xlink" x="0px" y="0px"
	 viewBox="0 0 111 111" enable-background="new 0 0 111 111" xml:space="preserve">
<path fill="#040000" d="M12,12h3v3h-3V12z M15,12h3v3h-3V12z M18,12h3v3h-3V12z M21,12h3v3h-3V12z M24,12h3v3h-3V12z M27,12h3v3h-3
	V12z M30,12h3v3h-3V12z M39,12h3v3h-3V12z M45,12h3v3h-3V12z M48,12h3v3h-3V12z M51,12h3v3h-3V12z M57,12h3v3h-3V12z M63,12h3v3h-3
	V12z M66,12h3v3h-3V12z M69,12h3v3h-3V12z M78,12h3v3h-3V12z M81,12h3v3h-3V12z M84,12h3v3h-3V12z M87,12h3v3h-3V12z M90,12h3v3h-3
	V12z M93,12h3v3h-3V12z M96,12h3v3h-3V12z M12,15h3v3h-3V15z M30,15h3v3h-3V15z M36,15h3v3h-3V15z M39,15h3v3h-3V15z M54,15h3v3h-3
	V15z M57,15h3v3h-3V15z M60,15h3v3h-3V15z M72,15h3v3h-3V15z M78,15h3v3h-3V15z M96,15h3v3h-3V15z M12,18h3v3h-3V18z M18,18h3v3h-3
	V18z M21,18h3v3h-3V18z M24,18h3v3h-3V18z M30,18h3v3h-3V18z M45,18h3v3h-3V18z M57,18h3v3h-3V18z M60,18h3v3h-3V18z M63,18h3v3h-3
	V18z M69,18h3v3h-3V18z M72,18h3v3h-3V18z M78,18h3v3h-3V18z M84,18h3v3h-3V18z M87,18h3v3h-3V18z M90,18h3v3h-3V18z M96,18h3v3h-3
	V18z M12,21h3v3h-3V21z M18,21h3v3h-3V21z M21,21h3v3h-3V21z M24,21h3v3h-3V21z M30,21h3v3h-3V21z M39,21h3v3h-3V21z M45,21h3v3h-3
	V21z M48,21h3v3h-3V21z M51,21h3v3h-3V21z M54,21h3v3h-3V21z M60,21h3v3h-3V21z M69,21h3v3h-3V21z M78,21h3v3h-3V21z M84,21h3v3h-3
	V21z M87,21h3v3h-3V21z M90,21h3v3h-3V21z M96,21h3v3h-3V21z M12,24h3v3h-3V24z M18,24h3v3h-3V24z M21,24h3v3h-3V24z M24,24h3v3h-3
	V24z M30,24h3v3h-3V24z M39,24h3v3h-3V24z M42,24h3v3h-3V24z M45,24h3v3h-3V24z M51,24h3v3h-3V24z M54,24h3v3h-3V24z M57,24h3v3h-3
	V24z M60,24h3v3h-3V24z M66,24h3v3h-3V24z M78,24h3v3h-3V24z M84,24h3v3h-3V24z M87,24h3v3h-3V24z M90,24h3v3h-3V24z M96,24h3v3h-3
	V24z M12,27h3v3h-3V27z M30,27h3v3h-3V27z M36,27h3v3h-3V27z M39,27h3v3h-3V27z M42,27h3v3h-3V27z M45,27h3v3h-3V27z M54,27h3v3h-3
	V27z M60,27h3v3h-3V27z M66,27h3v3h-3V27z M69,27h3v3h-3V27z M72,27h3v3h-3V27z M78,27h3v3h-3V27z M96,27h3v3h-3V27z M12,30h3v3h-3
	V30z M15,30h3v3h-3V30z M18,30h3v3h-3V30z M21,30h3v3h-3V30z M24,30h3v3h-3V30z M27,30h3v3h-3V30z M30,30h3v3h-3V30z M36,30h3v3h-3
	V30z M42,30h3v3h-3V30z M48,30h3v3h-3V30z M54,30h3v3h-3V30z M60,30h3v3h-3V30z M66,30h3v3h-3V30z M72,30h3v3h-3V30z M78,30h3v3h-3
	V30z M81,30h3v3h-3V30z M84,30h3v3h-3V30z M87,30h3v3h-3V30z M90,30h3v3h-3V30z M93,30h3v3h-3V30z M96,30h3v3h-3V30z M36,33h3v3h-3
	V33z M39,33h3v3h-3V33z M45,33h3v3h-3V33z M48,33h3v3h-3V33z M54,33h3v3h-3V33z M63,33h3v3h-3V33z M66,33h3v3h-3V33z M72,33h3v3h-3
	V33z M24,36h3v3h-3V36z M27,36h3v3h-3V36z M30,36h3v3h-3V36z M33,36h3v3h-3V36z M42,36h3v3h-3V36z M48,36h3v3h-3V36z M57,36h3v3h-3
	V36z M66,36h3v3h-3V36z M78,36h3v3h-3V36z M81,36h3v3h-3V36z M93,36h3v3h-3V36z M12,39h3v3h-3V39z M15,39h3v3h-3V39z M27,39h3v3h-3
	V39z M33,39h3v3h-3V39z M42,39h3v3h-3V39z M57,39h3v3h-3V39z M60,39h3v3h-3V39z M63,39h3v3h-3V39z M69,39h3v3h-3V39z M72,39h3v3h-3
	V39z M78,39h3v3h-3V39z M81,39h3v3h-3V39z M84,39h3v3h-3V39z M87,39h3v3h-3V39z M90,39h3v3h-3V39z M93,39h3v3h-3V39z M96,39h3v3h-3
	V39z M15,42h3v3h-3V42z M21,42h3v3h-3V42z M24,42h3v3h-3V42z M30,42h3v3h-3V42z M42,42h3v3h-3V42z M45,42h3v3h-3V42z M51,42h3v3h-3
	V42z M57,42h3v3h-3V42z M60,42h3v3h-3V42z M63,42h3v3h-3V42z M66,42h3v3h-3V42z M72,42h3v3h-3V42z M87,42h3v3h-3V42z M90,42h3v3h-3
	V42z M96,42h3v3h-3V42z M12,45h3v3h-3V45z M15,45h3v3h-3V45z M18,45h3v3h-3V45z M24,45h3v3h-3V45z M27,45h3v3h-3V45z M33,45h3v3h-3
	V45z M36,45h3v3h-3V45z M42,45h3v3h-3V45z M45,45h3v3h-3V45z M48,45h3v3h-3V45z M60,45h3v3h-3V45z M63,45h3v3h-3V45z M66,45h3v3h-3
	V45z M84,45h3v3h-3V45z M87,45h3v3h-3V45z M93,45h3v3h-3V45z M96,45h3v3h-3V45z M15,48h3v3h-3V48z M24,48h3v3h-3V48z M27,48h3v3h-3
	V48z M30,48h3v3h-3V48z M33,48h3v3h-3V48z M36,48h3v3h-3V48z M39,48h3v3h-3V48z M42,48h3v3h-3V48z M45,48h3v3h-3V48z M48,48h3v3h-3
	V48z M51,48h3v3h-3V48z M57,48h3v3h-3V48z M60,48h3v3h-3V48z M63,48h3v3h-3V48z M66,48h3v3h-3V48z M69,48h3v3h-3V48z M72,48h3v3h-3
	V48z M87,48h3v3h-3V48z M96,48h3v3h-3V48z M12,51h3v3h-3V51z M15,51h3v3h-3V51z M21,51h3v3h-3V51z M36,51h3v3h-3V51z M39,51h3v3h-3
	V51z M42,51h3v3h-3V51z M45,51h3v3h-3V51z M48,51h3v3h-3V51z M54,51h3v3h-3V51z M60,51h3v3h-3V51z M66,51h3v3h-3V51z M78,51h3v3h-3
	V51z M84,51h3v3h-3V51z M90,51h3v3h-3V51z M96,51h3v3h-3V51z M15,54h3v3h-3V54z M30,54h3v3h-3V54z M33,54h3v3h-3V54z M39,54h3v3h-3
	V54z M42,54h3v3h-3V54z M45,54h3v3h-3V54z M48,54h3v3h-3V54z M72,54h3v3h-3V54z M78,54h3v3h-3V54z M81,54h3v3h-3V54z M84,54h3v3h-3
	V54z M96,54h3v3h-3V54z M18,57h3v3h-3V57z M24,57h3v3h-3V57z M27,57h3v3h-3V57z M39,57h3v3h-3V57z M48,57h3v3h-3V57z M54,57h3v3h-3
	V57z M60,57h3v3h-3V57z M66,57h3v3h-3V57z M69,57h3v3h-3V57z M72,57h3v3h-3V57z M78,57h3v3h-3V57z M81,57h3v3h-3V57z M84,57h3v3h-3
	V57z M87,57h3v3h-3V57z M96,57h3v3h-3V57z M15,60h3v3h-3V60z M21,60h3v3h-3V60z M24,60h3v3h-3V60z M30,60h3v3h-3V60z M36,60h3v3h-3
	V60z M39,60h3v3h-3V60z M48,60h3v3h-3V60z M51,60h3v3h-3V60z M54,60h3v3h-3V60z M57,60h3v3h-3V60z M63,60h3v3h-3V60z M72,60h3v3h-3
	V60z M93,60h3v3h-3V60z M12,63h3v3h-3V63z M15,63h3v3h-3V63z M18,63h3v3h-3V63z M21,63h3v3h-3V63z M24,63h3v3h-3V63z M27,63h3v3h-3
	V63z M33,63h3v3h-3V63z M39,63h3v3h-3V63z M42,63h3v3h-3V63z M45,63h3v3h-3V63z M51,63h3v3h-3V63z M54,63h3v3h-3V63z M63,63h3v3h-3
	V63z M66,63h3v3h-3V63z M69,63h3v3h-3V63z M78,63h3v3h-3V63z M81,63h3v3h-3V63z M84,63h3v3h-3V63z M90,63h3v3h-3V63z M96,63h3v3h-3
	V63z M18,66h3v3h-3V66z M21,66h3v3h-3V66z M30,66h3v3h-3V66z M36,66h3v3h-3V66z M45,66h3v3h-3V66z M48,66h3v3h-3V66z M51,66h3v3h-3
	V66z M54,66h3v3h-3V66z M57,66h3v3h-3V66z M69,66h3v3h-3V66z M81,66h3v3h-3V66z M84,66h3v3h-3V66z M87,66h3v3h-3V66z M90,66h3v3h-3
	V66z M96,66h3v3h-3V66z M18,69h3v3h-3V69z M27,69h3v3h-3V69z M36,69h3v3h-3V69z M42,69h3v3h-3V69z M48,69h3v3h-3V69z M51,69h3v3h-3
	V69z M57,69h3v3h-3V69z M60,69h3v3h-3V69z M63,69h3v3h-3V69z M69,69h3v3h-3V69z M72,69h3v3h-3V69z M84,69h3v3h-3V69z M87,69h3v3h-3
	V69z M93,69h3v3h-3V69z M96,69h3v3h-3V69z M12,72h3v3h-3V72z M15,72h3v3h-3V72z M24,72h3v3h-3V72z M30,72h3v3h-3V72z M33,72h3v3h-3
	V72z M42,72h3v3h-3V72z M45,72h3v3h-3V72z M51,72h3v3h-3V72z M54,72h3v3h-3V72z M57,72h3v3h-3V72z M72,72h3v3h-3V72z M75,72h3v3h-3
	V72z M78,72h3v3h-3V72z M81,72h3v3h-3V72z M84,72h3v3h-3V72z M87,72h3v3h-3V72z M93,72h3v3h-3V72z M36,75h3v3h-3V75z M42,75h3v3h-3
	V75z M51,75h3v3h-3V75z M63,75h3v3h-3V75z M66,75h3v3h-3V75z M69,75h3v3h-3V75z M72,75h3v3h-3V75z M84,75h3v3h-3V75z M90,75h3v3h-3
	V75z M96,75h3v3h-3V75z M12,78h3v3h-3V78z M15,78h3v3h-3V78z M18,78h3v3h-3V78z M21,78h3v3h-3V78z M24,78h3v3h-3V78z M27,78h3v3h-3
	V78z M30,78h3v3h-3V78z M36,78h3v3h-3V78z M42,78h3v3h-3V78z M45,78h3v3h-3V78z M51,78h3v3h-3V78z M54,78h3v3h-3V78z M57,78h3v3h-3
	V78z M63,78h3v3h-3V78z M66,78h3v3h-3V78z M69,78h3v3h-3V78z M72,78h3v3h-3V78z M78,78h3v3h-3V78z M84,78h3v3h-3V78z M96,78h3v3h-3
	V78z M12,81h3v3h-3V81z M30,81h3v3h-3V81z M36,81h3v3h-3V81z M48,81h3v3h-3V81z M54,81h3v3h-3V81z M63,81h3v3h-3V81z M66,81h3v3h-3
	V81z M69,81h3v3h-3V81z M72,81h3v3h-3V81z M84,81h3v3h-3V81z M87,81h3v3h-3V81z M93,81h3v3h-3V81z M12,84h3v3h-3V84z M18,84h3v3h-3
	V84z M21,84h3v3h-3V84z M24,84h3v3h-3V84z M30,84h3v3h-3V84z M36,84h3v3h-3V84z M39,84h3v3h-3V84z M45,84h3v3h-3V84z M57,84h3v3h-3
	V84z M66,84h3v3h-3V84z M69,84h3v3h-3V84z M72,84h3v3h-3V84z M75,84h3v3h-3V84z M78,84h3v3h-3V84z M81,84h3v3h-3V84z M84,84h3v3h-3
	V84z M93,84h3v3h-3V84z M96,84h3v3h-3V84z M12,87h3v3h-3V87z M18,87h3v3h-3V87z M21,87h3v3h-3V87z M24,87h3v3h-3V87z M30,87h3v3h-3
	V87z M42,87h3v3h-3V87z M48,87h3v3h-3V87z M54,87h3v3h-3V87z M69,87h3v3h-3V87z M75,87h3v3h-3V87z M81,87h3v3h-3V87z M87,87h3v3h-3
	V87z M90,87h3v3h-3V87z M93,87h3v3h-3V87z M12,90h3v3h-3V90z M18,90h3v3h-3V90z M21,90h3v3h-3V90z M24,90h3v3h-3V90z M30,90h3v3h-3
	V90z M39,90h3v3h-3V90z M48,90h3v3h-3V90z M51,90h3v3h-3V90z M63,90h3v3h-3V90z M81,90h3v3h-3V90z M87,90h3v3h-3V90z M93,90h3v3h-3
	V90z M96,90h3v3h-3V90z M12,93h3v3h-3V93z M30,93h3v3h-3V93z M45,93h3v3h-3V93z M48,93h3v3h-3V93z M51,93h3v3h-3V93z M57,93h3v3h-3
	V93z M66,93h3v3h-3V93z M81,93h3v3h-3V93z M93,93h3v3h-3V93z M96,93h3v3h-3V93z M12,96h3v3h-3V96z M15,96h3v3h-3V96z M18,96h3v3h-3
	V96z M21,96h3v3h-3V96z M24,96h3v3h-3V96z M27,96h3v3h-3V96z M30,96h3v3h-3V96z M42,96h3v3h-3V96z M45,96h3v3h-3V96z M60,96h3v3h-3
	V96z M66,96h3v3h-3V96z M69,96h3v3h-3V96z M72,96h3v3h-3V96z M75,96h3v3h-3V96z M78,96h3v3h-3V96z M84,96h3v3h-3V96z M87,96h3v3h-3
	V96z M93,96h3v3h-3V96z"/>
</svg>
