<?xml version="1.0" encoding="utf-8"?>
<!-- Generator: Adobe Illustrator 17.1.0, SVG Export Plug-In . SVG Version: 6.00 Build 0)  -->
<!DOCTYPE svg PUBLIC "-//W3C//DTD SVG 1.1//EN" "http://www.w3.org/Graphics/SVG/1.1/DTD/svg11.dtd">
<svg version="1.1" id="图层_1" xmlns="http://www.w3.org/2000/svg" xmlns:xlink="http://www.w3.org/1999/xlink" x="0px" y="0px"
	 viewBox="0 0 123 123" enable-background="new 0 0 123 123" xml:space="preserve">
<path fill="#040000" d="M12,12h3v3h-3V12z M15,12h3v3h-3V12z M18,12h3v3h-3V12z M21,12h3v3h-3V12z M24,12h3v3h-3V12z M27,12h3v3h-3
	V12z M30,12h3v3h-3V12z M36,12h3v3h-3V12z M39,12h3v3h-3V12z M42,12h3v3h-3V12z M48,12h3v3h-3V12z M54,12h3v3h-3V12z M57,12h3v3h-3
	V12z M63,12h3v3h-3V12z M66,12h3v3h-3V12z M69,12h3v3h-3V12z M75,12h3v3h-3V12z M78,12h3v3h-3V12z M81,12h3v3h-3V12z M84,12h3v3h-3
	V12z M90,12h3v3h-3V12z M93,12h3v3h-3V12z M96,12h3v3h-3V12z M99,12h3v3h-3V12z M102,12h3v3h-3V12z M105,12h3v3h-3V12z M108,12h3v3
	h-3V12z M12,15h3v3h-3V15z M30,15h3v3h-3V15z M36,15h3v3h-3V15z M45,15h3v3h-3V15z M51,15h3v3h-3V15z M60,15h3v3h-3V15z M63,15h3v3
	h-3V15z M66,15h3v3h-3V15z M72,15h3v3h-3V15z M81,15h3v3h-3V15z M84,15h3v3h-3V15z M90,15h3v3h-3V15z M108,15h3v3h-3V15z M12,18h3v3
	h-3V18z M18,18h3v3h-3V18z M21,18h3v3h-3V18z M24,18h3v3h-3V18z M30,18h3v3h-3V18z M42,18h3v3h-3V18z M51,18h3v3h-3V18z M54,18h3v3
	h-3V18z M57,18h3v3h-3V18z M60,18h3v3h-3V18z M66,18h3v3h-3V18z M72,18h3v3h-3V18z M78,18h3v3h-3V18z M90,18h3v3h-3V18z M96,18h3v3
	h-3V18z M99,18h3v3h-3V18z M102,18h3v3h-3V18z M108,18h3v3h-3V18z M12,21h3v3h-3V21z M18,21h3v3h-3V21z M21,21h3v3h-3V21z M24,21h3
	v3h-3V21z M30,21h3v3h-3V21z M36,21h3v3h-3V21z M42,21h3v3h-3V21z M45,21h3v3h-3V21z M48,21h3v3h-3V21z M51,21h3v3h-3V21z M57,21h3
	v3h-3V21z M60,21h3v3h-3V21z M72,21h3v3h-3V21z M78,21h3v3h-3V21z M90,21h3v3h-3V21z M96,21h3v3h-3V21z M99,21h3v3h-3V21z M102,21h3
	v3h-3V21z M108,21h3v3h-3V21z M12,24h3v3h-3V24z M18,24h3v3h-3V24z M21,24h3v3h-3V24z M24,24h3v3h-3V24z M30,24h3v3h-3V24z M36,24h3
	v3h-3V24z M45,24h3v3h-3V24z M51,24h3v3h-3V24z M57,24h3v3h-3V24z M60,24h3v3h-3V24z M66,24h3v3h-3V24z M75,24h3v3h-3V24z M84,24h3
	v3h-3V24z M90,24h3v3h-3V24z M96,24h3v3h-3V24z M99,24h3v3h-3V24z M102,24h3v3h-3V24z M108,24h3v3h-3V24z M12,27h3v3h-3V27z M30,27
	h3v3h-3V27z M36,27h3v3h-3V27z M45,27h3v3h-3V27z M54,27h3v3h-3V27z M60,27h3v3h-3V27z M78,27h3v3h-3V27z M84,27h3v3h-3V27z M90,27
	h3v3h-3V27z M108,27h3v3h-3V27z M12,30h3v3h-3V30z M15,30h3v3h-3V30z M18,30h3v3h-3V30z M21,30h3v3h-3V30z M24,30h3v3h-3V30z M27,30
	h3v3h-3V30z M30,30h3v3h-3V30z M36,30h3v3h-3V30z M42,30h3v3h-3V30z M48,30h3v3h-3V30z M54,30h3v3h-3V30z M60,30h3v3h-3V30z M66,30
	h3v3h-3V30z M72,30h3v3h-3V30z M78,30h3v3h-3V30z M84,30h3v3h-3V30z M90,30h3v3h-3V30z M93,30h3v3h-3V30z M96,30h3v3h-3V30z M99,30
	h3v3h-3V30z M102,30h3v3h-3V30z M105,30h3v3h-3V30z M108,30h3v3h-3V30z M39,33h3v3h-3V33z M48,33h3v3h-3V33z M54,33h3v3h-3V33z
	 M60,33h3v3h-3V33z M72,33h3v3h-3V33z M75,33h3v3h-3V33z M84,33h3v3h-3V33z M21,36h3v3h-3V36z M30,36h3v3h-3V36z M42,36h3v3h-3V36z
	 M45,36h3v3h-3V36z M51,36h3v3h-3V36z M60,36h3v3h-3V36z M63,36h3v3h-3V36z M66,36h3v3h-3V36z M72,36h3v3h-3V36z M75,36h3v3h-3V36z
	 M78,36h3v3h-3V36z M84,36h3v3h-3V36z M93,36h3v3h-3V36z M96,36h3v3h-3V36z M99,36h3v3h-3V36z M105,36h3v3h-3V36z M108,36h3v3h-3V36
	z M18,39h3v3h-3V39z M21,39h3v3h-3V39z M24,39h3v3h-3V39z M33,39h3v3h-3V39z M48,39h3v3h-3V39z M57,39h3v3h-3V39z M69,39h3v3h-3V39z
	 M72,39h3v3h-3V39z M84,39h3v3h-3V39z M90,39h3v3h-3V39z M105,39h3v3h-3V39z M108,39h3v3h-3V39z M15,42h3v3h-3V42z M24,42h3v3h-3V42
	z M27,42h3v3h-3V42z M30,42h3v3h-3V42z M39,42h3v3h-3V42z M45,42h3v3h-3V42z M51,42h3v3h-3V42z M63,42h3v3h-3V42z M69,42h3v3h-3V42z
	 M75,42h3v3h-3V42z M78,42h3v3h-3V42z M90,42h3v3h-3V42z M102,42h3v3h-3V42z M108,42h3v3h-3V42z M12,45h3v3h-3V45z M27,45h3v3h-3V45
	z M33,45h3v3h-3V45z M36,45h3v3h-3V45z M39,45h3v3h-3V45z M42,45h3v3h-3V45z M54,45h3v3h-3V45z M57,45h3v3h-3V45z M63,45h3v3h-3V45z
	 M69,45h3v3h-3V45z M72,45h3v3h-3V45z M90,45h3v3h-3V45z M99,45h3v3h-3V45z M108,45h3v3h-3V45z M12,48h3v3h-3V48z M27,48h3v3h-3V48z
	 M30,48h3v3h-3V48z M33,48h3v3h-3V48z M39,48h3v3h-3V48z M42,48h3v3h-3V48z M45,48h3v3h-3V48z M48,48h3v3h-3V48z M51,48h3v3h-3V48z
	 M54,48h3v3h-3V48z M66,48h3v3h-3V48z M69,48h3v3h-3V48z M72,48h3v3h-3V48z M81,48h3v3h-3V48z M84,48h3v3h-3V48z M87,48h3v3h-3V48z
	 M90,48h3v3h-3V48z M108,48h3v3h-3V48z M18,51h3v3h-3V51z M24,51h3v3h-3V51z M27,51h3v3h-3V51z M33,51h3v3h-3V51z M39,51h3v3h-3V51z
	 M42,51h3v3h-3V51z M45,51h3v3h-3V51z M54,51h3v3h-3V51z M63,51h3v3h-3V51z M66,51h3v3h-3V51z M78,51h3v3h-3V51z M90,51h3v3h-3V51z
	 M96,51h3v3h-3V51z M99,51h3v3h-3V51z M108,51h3v3h-3V51z M15,54h3v3h-3V54z M24,54h3v3h-3V54z M30,54h3v3h-3V54z M48,54h3v3h-3V54z
	 M51,54h3v3h-3V54z M54,54h3v3h-3V54z M60,54h3v3h-3V54z M63,54h3v3h-3V54z M66,54h3v3h-3V54z M69,54h3v3h-3V54z M75,54h3v3h-3V54z
	 M81,54h3v3h-3V54z M84,54h3v3h-3V54z M96,54h3v3h-3V54z M102,54h3v3h-3V54z M105,54h3v3h-3V54z M15,57h3v3h-3V57z M18,57h3v3h-3V57
	z M21,57h3v3h-3V57z M24,57h3v3h-3V57z M27,57h3v3h-3V57z M36,57h3v3h-3V57z M39,57h3v3h-3V57z M42,57h3v3h-3V57z M48,57h3v3h-3V57z
	 M60,57h3v3h-3V57z M66,57h3v3h-3V57z M69,57h3v3h-3V57z M75,57h3v3h-3V57z M78,57h3v3h-3V57z M84,57h3v3h-3V57z M87,57h3v3h-3V57z
	 M90,57h3v3h-3V57z M105,57h3v3h-3V57z M24,60h3v3h-3V60z M27,60h3v3h-3V60z M30,60h3v3h-3V60z M33,60h3v3h-3V60z M39,60h3v3h-3V60z
	 M45,60h3v3h-3V60z M54,60h3v3h-3V60z M60,60h3v3h-3V60z M63,60h3v3h-3V60z M75,60h3v3h-3V60z M78,60h3v3h-3V60z M81,60h3v3h-3V60z
	 M84,60h3v3h-3V60z M87,60h3v3h-3V60z M90,60h3v3h-3V60z M96,60h3v3h-3V60z M105,60h3v3h-3V60z M108,60h3v3h-3V60z M12,63h3v3h-3V63
	z M15,63h3v3h-3V63z M24,63h3v3h-3V63z M27,63h3v3h-3V63z M33,63h3v3h-3V63z M42,63h3v3h-3V63z M45,63h3v3h-3V63z M48,63h3v3h-3V63z
	 M54,63h3v3h-3V63z M57,63h3v3h-3V63z M60,63h3v3h-3V63z M72,63h3v3h-3V63z M75,63h3v3h-3V63z M81,63h3v3h-3V63z M87,63h3v3h-3V63z
	 M102,63h3v3h-3V63z M105,63h3v3h-3V63z M15,66h3v3h-3V66z M18,66h3v3h-3V66z M21,66h3v3h-3V66z M27,66h3v3h-3V66z M30,66h3v3h-3V66
	z M36,66h3v3h-3V66z M48,66h3v3h-3V66z M51,66h3v3h-3V66z M60,66h3v3h-3V66z M63,66h3v3h-3V66z M69,66h3v3h-3V66z M75,66h3v3h-3V66z
	 M84,66h3v3h-3V66z M87,66h3v3h-3V66z M93,66h3v3h-3V66z M96,66h3v3h-3V66z M102,66h3v3h-3V66z M105,66h3v3h-3V66z M108,66h3v3h-3
	V66z M12,69h3v3h-3V69z M18,69h3v3h-3V69z M24,69h3v3h-3V69z M33,69h3v3h-3V69z M39,69h3v3h-3V69z M42,69h3v3h-3V69z M48,69h3v3h-3
	V69z M51,69h3v3h-3V69z M57,69h3v3h-3V69z M60,69h3v3h-3V69z M63,69h3v3h-3V69z M66,69h3v3h-3V69z M69,69h3v3h-3V69z M75,69h3v3h-3
	V69z M87,69h3v3h-3V69z M90,69h3v3h-3V69z M96,69h3v3h-3V69z M108,69h3v3h-3V69z M30,72h3v3h-3V72z M36,72h3v3h-3V72z M48,72h3v3h-3
	V72z M51,72h3v3h-3V72z M57,72h3v3h-3V72z M60,72h3v3h-3V72z M63,72h3v3h-3V72z M66,72h3v3h-3V72z M69,72h3v3h-3V72z M75,72h3v3h-3
	V72z M84,72h3v3h-3V72z M87,72h3v3h-3V72z M93,72h3v3h-3V72z M18,75h3v3h-3V75z M24,75h3v3h-3V75z M33,75h3v3h-3V75z M48,75h3v3h-3
	V75z M54,75h3v3h-3V75z M60,75h3v3h-3V75z M63,75h3v3h-3V75z M72,75h3v3h-3V75z M87,75h3v3h-3V75z M90,75h3v3h-3V75z M99,75h3v3h-3
	V75z M102,75h3v3h-3V75z M108,75h3v3h-3V75z M12,78h3v3h-3V78z M15,78h3v3h-3V78z M21,78h3v3h-3V78z M24,78h3v3h-3V78z M30,78h3v3
	h-3V78z M36,78h3v3h-3V78z M39,78h3v3h-3V78z M42,78h3v3h-3V78z M45,78h3v3h-3V78z M48,78h3v3h-3V78z M51,78h3v3h-3V78z M54,78h3v3
	h-3V78z M60,78h3v3h-3V78z M66,78h3v3h-3V78z M72,78h3v3h-3V78z M75,78h3v3h-3V78z M78,78h3v3h-3V78z M87,78h3v3h-3V78z M90,78h3v3
	h-3V78z M93,78h3v3h-3V78z M99,78h3v3h-3V78z M102,78h3v3h-3V78z M108,78h3v3h-3V78z M15,81h3v3h-3V81z M18,81h3v3h-3V81z M24,81h3
	v3h-3V81z M45,81h3v3h-3V81z M54,81h3v3h-3V81z M60,81h3v3h-3V81z M66,81h3v3h-3V81z M69,81h3v3h-3V81z M75,81h3v3h-3V81z M78,81h3
	v3h-3V81z M84,81h3v3h-3V81z M87,81h3v3h-3V81z M90,81h3v3h-3V81z M93,81h3v3h-3V81z M96,81h3v3h-3V81z M99,81h3v3h-3V81z M108,81h3
	v3h-3V81z M12,84h3v3h-3V84z M18,84h3v3h-3V84z M21,84h3v3h-3V84z M24,84h3v3h-3V84z M30,84h3v3h-3V84z M39,84h3v3h-3V84z M42,84h3
	v3h-3V84z M45,84h3v3h-3V84z M48,84h3v3h-3V84z M60,84h3v3h-3V84z M66,84h3v3h-3V84z M72,84h3v3h-3V84z M75,84h3v3h-3V84z M81,84h3
	v3h-3V84z M84,84h3v3h-3V84z M87,84h3v3h-3V84z M90,84h3v3h-3V84z M93,84h3v3h-3V84z M96,84h3v3h-3V84z M99,84h3v3h-3V84z M36,87h3
	v3h-3V87z M42,87h3v3h-3V87z M48,87h3v3h-3V87z M60,87h3v3h-3V87z M66,87h3v3h-3V87z M69,87h3v3h-3V87z M72,87h3v3h-3V87z M75,87h3
	v3h-3V87z M81,87h3v3h-3V87z M84,87h3v3h-3V87z M96,87h3v3h-3V87z M99,87h3v3h-3V87z M102,87h3v3h-3V87z M108,87h3v3h-3V87z M12,90
	h3v3h-3V90z M15,90h3v3h-3V90z M18,90h3v3h-3V90z M21,90h3v3h-3V90z M24,90h3v3h-3V90z M27,90h3v3h-3V90z M30,90h3v3h-3V90z M42,90
	h3v3h-3V90z M51,90h3v3h-3V90z M57,90h3v3h-3V90z M63,90h3v3h-3V90z M69,90h3v3h-3V90z M72,90h3v3h-3V90z M78,90h3v3h-3V90z M84,90
	h3v3h-3V90z M90,90h3v3h-3V90z M96,90h3v3h-3V90z M99,90h3v3h-3V90z M102,90h3v3h-3V90z M105,90h3v3h-3V90z M12,93h3v3h-3V93z
	 M30,93h3v3h-3V93z M39,93h3v3h-3V93z M48,93h3v3h-3V93z M57,93h3v3h-3V93z M63,93h3v3h-3V93z M75,93h3v3h-3V93z M78,93h3v3h-3V93z
	 M84,93h3v3h-3V93z M96,93h3v3h-3V93z M108,93h3v3h-3V93z M12,96h3v3h-3V96z M18,96h3v3h-3V96z M21,96h3v3h-3V96z M24,96h3v3h-3V96z
	 M30,96h3v3h-3V96z M48,96h3v3h-3V96z M51,96h3v3h-3V96z M54,96h3v3h-3V96z M57,96h3v3h-3V96z M66,96h3v3h-3V96z M72,96h3v3h-3V96z
	 M84,96h3v3h-3V96z M87,96h3v3h-3V96z M90,96h3v3h-3V96z M93,96h3v3h-3V96z M96,96h3v3h-3V96z M99,96h3v3h-3V96z M105,96h3v3h-3V96z
	 M12,99h3v3h-3V99z M18,99h3v3h-3V99z M21,99h3v3h-3V99z M24,99h3v3h-3V99z M30,99h3v3h-3V99z M36,99h3v3h-3V99z M39,99h3v3h-3V99z
	 M42,99h3v3h-3V99z M48,99h3v3h-3V99z M51,99h3v3h-3V99z M60,99h3v3h-3V99z M63,99h3v3h-3V99z M66,99h3v3h-3V99z M69,99h3v3h-3V99z
	 M75,99h3v3h-3V99z M78,99h3v3h-3V99z M84,99h3v3h-3V99z M87,99h3v3h-3V99z M90,99h3v3h-3V99z M96,99h3v3h-3V99z M99,99h3v3h-3V99z
	 M102,99h3v3h-3V99z M105,99h3v3h-3V99z M12,102h3v3h-3V102z M18,102h3v3h-3V102z M21,102h3v3h-3V102z M24,102h3v3h-3V102z M30,102
	h3v3h-3V102z M42,102h3v3h-3V102z M45,102h3v3h-3V102z M48,102h3v3h-3V102z M63,102h3v3h-3V102z M66,102h3v3h-3V102z M69,102h3v3h-3
	V102z M75,102h3v3h-3V102z M78,102h3v3h-3V102z M81,102h3v3h-3V102z M87,102h3v3h-3V102z M93,102h3v3h-3V102z M96,102h3v3h-3V102z
	 M108,102h3v3h-3V102z M12,105h3v3h-3V105z M30,105h3v3h-3V105z M39,105h3v3h-3V105z M42,105h3v3h-3V105z M45,105h3v3h-3V105z
	 M54,105h3v3h-3V105z M60,105h3v3h-3V105z M75,105h3v3h-3V105z M78,105h3v3h-3V105z M81,105h3v3h-3V105z M84,105h3v3h-3V105z
	 M93,105h3v3h-3V105z M96,105h3v3h-3V105z M12,108h3v3h-3V108z M15,108h3v3h-3V108z M18,108h3v3h-3V108z M21,108h3v3h-3V108z
	 M24,108h3v3h-3V108z M27,108h3v3h-3V108z M30,108h3v3h-3V108z M39,108h3v3h-3V108z M42,108h3v3h-3V108z M48,108h3v3h-3V108z
	 M57,108h3v3h-3V108z M60,108h3v3h-3V108z M63,108h3v3h-3V108z M84,108h3v3h-3V108z M87,108h3v3h-3V108z M93,108h3v3h-3V108z
	 M96,108h3v3h-3V108z M99,108h3v3h-3V108z M105,108h3v3h-3V108z"/>
</svg>
