<?xml version="1.0" encoding="utf-8"?>
<!-- Generator: Adobe Illustrator 17.1.0, SVG Export Plug-In . SVG Version: 6.00 Build 0)  -->
<!DOCTYPE svg PUBLIC "-//W3C//DTD SVG 1.1//EN" "http://www.w3.org/Graphics/SVG/1.1/DTD/svg11.dtd">
<svg version="1.1" id="图层_1" xmlns="http://www.w3.org/2000/svg" xmlns:xlink="http://www.w3.org/1999/xlink" x="0px" y="0px"
	 viewBox="0 0 123 123" enable-background="new 0 0 123 123" xml:space="preserve">
<path fill="#040000" d="M12,12h3v3h-3V12z M15,12h3v3h-3V12z M18,12h3v3h-3V12z M21,12h3v3h-3V12z M24,12h3v3h-3V12z M27,12h3v3h-3
	V12z M30,12h3v3h-3V12z M36,12h3v3h-3V12z M42,12h3v3h-3V12z M45,12h3v3h-3V12z M51,12h3v3h-3V12z M54,12h3v3h-3V12z M63,12h3v3h-3
	V12z M69,12h3v3h-3V12z M75,12h3v3h-3V12z M78,12h3v3h-3V12z M84,12h3v3h-3V12z M90,12h3v3h-3V12z M93,12h3v3h-3V12z M96,12h3v3h-3
	V12z M99,12h3v3h-3V12z M102,12h3v3h-3V12z M105,12h3v3h-3V12z M108,12h3v3h-3V12z M12,15h3v3h-3V15z M30,15h3v3h-3V15z M48,15h3v3
	h-3V15z M72,15h3v3h-3V15z M75,15h3v3h-3V15z M90,15h3v3h-3V15z M108,15h3v3h-3V15z M12,18h3v3h-3V18z M18,18h3v3h-3V18z M21,18h3v3
	h-3V18z M24,18h3v3h-3V18z M30,18h3v3h-3V18z M36,18h3v3h-3V18z M39,18h3v3h-3V18z M51,18h3v3h-3V18z M57,18h3v3h-3V18z M60,18h3v3
	h-3V18z M66,18h3v3h-3V18z M75,18h3v3h-3V18z M78,18h3v3h-3V18z M81,18h3v3h-3V18z M90,18h3v3h-3V18z M96,18h3v3h-3V18z M99,18h3v3
	h-3V18z M102,18h3v3h-3V18z M108,18h3v3h-3V18z M12,21h3v3h-3V21z M18,21h3v3h-3V21z M21,21h3v3h-3V21z M24,21h3v3h-3V21z M30,21h3
	v3h-3V21z M39,21h3v3h-3V21z M48,21h3v3h-3V21z M54,21h3v3h-3V21z M63,21h3v3h-3V21z M66,21h3v3h-3V21z M72,21h3v3h-3V21z M75,21h3
	v3h-3V21z M81,21h3v3h-3V21z M90,21h3v3h-3V21z M96,21h3v3h-3V21z M99,21h3v3h-3V21z M102,21h3v3h-3V21z M108,21h3v3h-3V21z M12,24
	h3v3h-3V24z M18,24h3v3h-3V24z M21,24h3v3h-3V24z M24,24h3v3h-3V24z M30,24h3v3h-3V24z M36,24h3v3h-3V24z M39,24h3v3h-3V24z M42,24
	h3v3h-3V24z M45,24h3v3h-3V24z M51,24h3v3h-3V24z M69,24h3v3h-3V24z M84,24h3v3h-3V24z M90,24h3v3h-3V24z M96,24h3v3h-3V24z M99,24
	h3v3h-3V24z M102,24h3v3h-3V24z M108,24h3v3h-3V24z M12,27h3v3h-3V27z M30,27h3v3h-3V27z M39,27h3v3h-3V27z M42,27h3v3h-3V27z
	 M48,27h3v3h-3V27z M51,27h3v3h-3V27z M54,27h3v3h-3V27z M57,27h3v3h-3V27z M60,27h3v3h-3V27z M66,27h3v3h-3V27z M69,27h3v3h-3V27z
	 M75,27h3v3h-3V27z M78,27h3v3h-3V27z M90,27h3v3h-3V27z M108,27h3v3h-3V27z M12,30h3v3h-3V30z M15,30h3v3h-3V30z M18,30h3v3h-3V30z
	 M21,30h3v3h-3V30z M24,30h3v3h-3V30z M27,30h3v3h-3V30z M30,30h3v3h-3V30z M36,30h3v3h-3V30z M42,30h3v3h-3V30z M48,30h3v3h-3V30z
	 M54,30h3v3h-3V30z M60,30h3v3h-3V30z M66,30h3v3h-3V30z M72,30h3v3h-3V30z M78,30h3v3h-3V30z M84,30h3v3h-3V30z M90,30h3v3h-3V30z
	 M93,30h3v3h-3V30z M96,30h3v3h-3V30z M99,30h3v3h-3V30z M102,30h3v3h-3V30z M105,30h3v3h-3V30z M108,30h3v3h-3V30z M36,33h3v3h-3
	V33z M54,33h3v3h-3V33z M66,33h3v3h-3V33z M69,33h3v3h-3V33z M78,33h3v3h-3V33z M84,33h3v3h-3V33z M27,36h3v3h-3V36z M30,36h3v3h-3
	V36z M42,36h3v3h-3V36z M45,36h3v3h-3V36z M51,36h3v3h-3V36z M63,36h3v3h-3V36z M69,36h3v3h-3V36z M78,36h3v3h-3V36z M84,36h3v3h-3
	V36z M90,36h3v3h-3V36z M96,36h3v3h-3V36z M102,36h3v3h-3V36z M108,36h3v3h-3V36z M15,39h3v3h-3V39z M18,39h3v3h-3V39z M21,39h3v3
	h-3V39z M33,39h3v3h-3V39z M48,39h3v3h-3V39z M51,39h3v3h-3V39z M54,39h3v3h-3V39z M57,39h3v3h-3V39z M66,39h3v3h-3V39z M69,39h3v3
	h-3V39z M72,39h3v3h-3V39z M75,39h3v3h-3V39z M78,39h3v3h-3V39z M81,39h3v3h-3V39z M87,39h3v3h-3V39z M93,39h3v3h-3V39z M96,39h3v3
	h-3V39z M102,39h3v3h-3V39z M105,39h3v3h-3V39z M18,42h3v3h-3V42z M21,42h3v3h-3V42z M24,42h3v3h-3V42z M30,42h3v3h-3V42z M33,42h3
	v3h-3V42z M36,42h3v3h-3V42z M39,42h3v3h-3V42z M42,42h3v3h-3V42z M51,42h3v3h-3V42z M54,42h3v3h-3V42z M69,42h3v3h-3V42z M72,42h3
	v3h-3V42z M78,42h3v3h-3V42z M87,42h3v3h-3V42z M90,42h3v3h-3V42z M93,42h3v3h-3V42z M99,42h3v3h-3V42z M102,42h3v3h-3V42z M105,42
	h3v3h-3V42z M12,45h3v3h-3V45z M15,45h3v3h-3V45z M21,45h3v3h-3V45z M24,45h3v3h-3V45z M33,45h3v3h-3V45z M39,45h3v3h-3V45z M42,45
	h3v3h-3V45z M45,45h3v3h-3V45z M51,45h3v3h-3V45z M57,45h3v3h-3V45z M63,45h3v3h-3V45z M66,45h3v3h-3V45z M75,45h3v3h-3V45z M81,45
	h3v3h-3V45z M84,45h3v3h-3V45z M93,45h3v3h-3V45z M99,45h3v3h-3V45z M102,45h3v3h-3V45z M105,45h3v3h-3V45z M108,45h3v3h-3V45z
	 M12,48h3v3h-3V48z M15,48h3v3h-3V48z M24,48h3v3h-3V48z M30,48h3v3h-3V48z M33,48h3v3h-3V48z M36,48h3v3h-3V48z M39,48h3v3h-3V48z
	 M54,48h3v3h-3V48z M66,48h3v3h-3V48z M72,48h3v3h-3V48z M75,48h3v3h-3V48z M81,48h3v3h-3V48z M90,48h3v3h-3V48z M93,48h3v3h-3V48z
	 M96,48h3v3h-3V48z M99,48h3v3h-3V48z M105,48h3v3h-3V48z M108,48h3v3h-3V48z M12,51h3v3h-3V51z M15,51h3v3h-3V51z M18,51h3v3h-3V51
	z M21,51h3v3h-3V51z M27,51h3v3h-3V51z M33,51h3v3h-3V51z M36,51h3v3h-3V51z M39,51h3v3h-3V51z M42,51h3v3h-3V51z M45,51h3v3h-3V51z
	 M54,51h3v3h-3V51z M66,51h3v3h-3V51z M69,51h3v3h-3V51z M75,51h3v3h-3V51z M81,51h3v3h-3V51z M90,51h3v3h-3V51z M93,51h3v3h-3V51z
	 M96,51h3v3h-3V51z M99,51h3v3h-3V51z M108,51h3v3h-3V51z M12,54h3v3h-3V54z M15,54h3v3h-3V54z M21,54h3v3h-3V54z M24,54h3v3h-3V54z
	 M27,54h3v3h-3V54z M30,54h3v3h-3V54z M33,54h3v3h-3V54z M42,54h3v3h-3V54z M45,54h3v3h-3V54z M54,54h3v3h-3V54z M66,54h3v3h-3V54z
	 M72,54h3v3h-3V54z M78,54h3v3h-3V54z M84,54h3v3h-3V54z M93,54h3v3h-3V54z M96,54h3v3h-3V54z M105,54h3v3h-3V54z M12,57h3v3h-3V57z
	 M15,57h3v3h-3V57z M21,57h3v3h-3V57z M24,57h3v3h-3V57z M27,57h3v3h-3V57z M33,57h3v3h-3V57z M39,57h3v3h-3V57z M45,57h3v3h-3V57z
	 M48,57h3v3h-3V57z M51,57h3v3h-3V57z M54,57h3v3h-3V57z M57,57h3v3h-3V57z M60,57h3v3h-3V57z M63,57h3v3h-3V57z M72,57h3v3h-3V57z
	 M81,57h3v3h-3V57z M90,57h3v3h-3V57z M93,57h3v3h-3V57z M99,57h3v3h-3V57z M12,60h3v3h-3V60z M18,60h3v3h-3V60z M30,60h3v3h-3V60z
	 M33,60h3v3h-3V60z M36,60h3v3h-3V60z M39,60h3v3h-3V60z M48,60h3v3h-3V60z M66,60h3v3h-3V60z M78,60h3v3h-3V60z M81,60h3v3h-3V60z
	 M84,60h3v3h-3V60z M96,60h3v3h-3V60z M102,60h3v3h-3V60z M108,60h3v3h-3V60z M15,63h3v3h-3V63z M18,63h3v3h-3V63z M21,63h3v3h-3V63
	z M24,63h3v3h-3V63z M27,63h3v3h-3V63z M39,63h3v3h-3V63z M42,63h3v3h-3V63z M48,63h3v3h-3V63z M57,63h3v3h-3V63z M63,63h3v3h-3V63z
	 M66,63h3v3h-3V63z M72,63h3v3h-3V63z M75,63h3v3h-3V63z M81,63h3v3h-3V63z M84,63h3v3h-3V63z M90,63h3v3h-3V63z M93,63h3v3h-3V63z
	 M24,66h3v3h-3V66z M30,66h3v3h-3V66z M36,66h3v3h-3V66z M39,66h3v3h-3V66z M57,66h3v3h-3V66z M66,66h3v3h-3V66z M69,66h3v3h-3V66z
	 M75,66h3v3h-3V66z M78,66h3v3h-3V66z M81,66h3v3h-3V66z M84,66h3v3h-3V66z M87,66h3v3h-3V66z M90,66h3v3h-3V66z M93,66h3v3h-3V66z
	 M96,66h3v3h-3V66z M99,66h3v3h-3V66z M102,66h3v3h-3V66z M105,66h3v3h-3V66z M108,66h3v3h-3V66z M12,69h3v3h-3V69z M21,69h3v3h-3
	V69z M27,69h3v3h-3V69z M33,69h3v3h-3V69z M39,69h3v3h-3V69z M42,69h3v3h-3V69z M45,69h3v3h-3V69z M54,69h3v3h-3V69z M57,69h3v3h-3
	V69z M60,69h3v3h-3V69z M63,69h3v3h-3V69z M66,69h3v3h-3V69z M72,69h3v3h-3V69z M78,69h3v3h-3V69z M81,69h3v3h-3V69z M84,69h3v3h-3
	V69z M87,69h3v3h-3V69z M99,69h3v3h-3V69z M102,69h3v3h-3V69z M105,69h3v3h-3V69z M108,69h3v3h-3V69z M18,72h3v3h-3V72z M24,72h3v3
	h-3V72z M30,72h3v3h-3V72z M33,72h3v3h-3V72z M36,72h3v3h-3V72z M51,72h3v3h-3V72z M66,72h3v3h-3V72z M69,72h3v3h-3V72z M72,72h3v3
	h-3V72z M78,72h3v3h-3V72z M81,72h3v3h-3V72z M84,72h3v3h-3V72z M93,72h3v3h-3V72z M96,72h3v3h-3V72z M99,72h3v3h-3V72z M105,72h3v3
	h-3V72z M108,72h3v3h-3V72z M12,75h3v3h-3V75z M21,75h3v3h-3V75z M24,75h3v3h-3V75z M42,75h3v3h-3V75z M60,75h3v3h-3V75z M63,75h3v3
	h-3V75z M66,75h3v3h-3V75z M69,75h3v3h-3V75z M75,75h3v3h-3V75z M78,75h3v3h-3V75z M87,75h3v3h-3V75z M90,75h3v3h-3V75z M93,75h3v3
	h-3V75z M96,75h3v3h-3V75z M102,75h3v3h-3V75z M12,78h3v3h-3V78z M18,78h3v3h-3V78z M21,78h3v3h-3V78z M24,78h3v3h-3V78z M27,78h3v3
	h-3V78z M30,78h3v3h-3V78z M36,78h3v3h-3V78z M39,78h3v3h-3V78z M42,78h3v3h-3V78z M57,78h3v3h-3V78z M60,78h3v3h-3V78z M66,78h3v3
	h-3V78z M69,78h3v3h-3V78z M72,78h3v3h-3V78z M75,78h3v3h-3V78z M78,78h3v3h-3V78z M81,78h3v3h-3V78z M84,78h3v3h-3V78z M96,78h3v3
	h-3V78z M105,78h3v3h-3V78z M12,81h3v3h-3V81z M21,81h3v3h-3V81z M27,81h3v3h-3V81z M36,81h3v3h-3V81z M39,81h3v3h-3V81z M51,81h3v3
	h-3V81z M60,81h3v3h-3V81z M63,81h3v3h-3V81z M66,81h3v3h-3V81z M69,81h3v3h-3V81z M78,81h3v3h-3V81z M81,81h3v3h-3V81z M93,81h3v3
	h-3V81z M96,81h3v3h-3V81z M99,81h3v3h-3V81z M102,81h3v3h-3V81z M108,81h3v3h-3V81z M12,84h3v3h-3V84z M15,84h3v3h-3V84z M18,84h3
	v3h-3V84z M21,84h3v3h-3V84z M27,84h3v3h-3V84z M30,84h3v3h-3V84z M33,84h3v3h-3V84z M36,84h3v3h-3V84z M42,84h3v3h-3V84z M48,84h3
	v3h-3V84z M51,84h3v3h-3V84z M54,84h3v3h-3V84z M57,84h3v3h-3V84z M60,84h3v3h-3V84z M66,84h3v3h-3V84z M72,84h3v3h-3V84z M78,84h3
	v3h-3V84z M84,84h3v3h-3V84z M87,84h3v3h-3V84z M90,84h3v3h-3V84z M93,84h3v3h-3V84z M96,84h3v3h-3V84z M99,84h3v3h-3V84z M36,87h3
	v3h-3V87z M42,87h3v3h-3V87z M54,87h3v3h-3V87z M63,87h3v3h-3V87z M66,87h3v3h-3V87z M69,87h3v3h-3V87z M84,87h3v3h-3V87z M96,87h3
	v3h-3V87z M102,87h3v3h-3V87z M108,87h3v3h-3V87z M12,90h3v3h-3V90z M15,90h3v3h-3V90z M18,90h3v3h-3V90z M21,90h3v3h-3V90z M24,90
	h3v3h-3V90z M27,90h3v3h-3V90z M30,90h3v3h-3V90z M51,90h3v3h-3V90z M54,90h3v3h-3V90z M63,90h3v3h-3V90z M66,90h3v3h-3V90z M75,90
	h3v3h-3V90z M81,90h3v3h-3V90z M84,90h3v3h-3V90z M90,90h3v3h-3V90z M96,90h3v3h-3V90z M99,90h3v3h-3V90z M102,90h3v3h-3V90z
	 M105,90h3v3h-3V90z M12,93h3v3h-3V93z M30,93h3v3h-3V93z M36,93h3v3h-3V93z M39,93h3v3h-3V93z M48,93h3v3h-3V93z M51,93h3v3h-3V93z
	 M54,93h3v3h-3V93z M57,93h3v3h-3V93z M60,93h3v3h-3V93z M63,93h3v3h-3V93z M66,93h3v3h-3V93z M69,93h3v3h-3V93z M81,93h3v3h-3V93z
	 M84,93h3v3h-3V93z M96,93h3v3h-3V93z M99,93h3v3h-3V93z M102,93h3v3h-3V93z M105,93h3v3h-3V93z M108,93h3v3h-3V93z M12,96h3v3h-3
	V96z M18,96h3v3h-3V96z M21,96h3v3h-3V96z M24,96h3v3h-3V96z M30,96h3v3h-3V96z M39,96h3v3h-3V96z M42,96h3v3h-3V96z M45,96h3v3h-3
	V96z M51,96h3v3h-3V96z M54,96h3v3h-3V96z M63,96h3v3h-3V96z M66,96h3v3h-3V96z M69,96h3v3h-3V96z M75,96h3v3h-3V96z M84,96h3v3h-3
	V96z M87,96h3v3h-3V96z M90,96h3v3h-3V96z M93,96h3v3h-3V96z M96,96h3v3h-3V96z M99,96h3v3h-3V96z M105,96h3v3h-3V96z M12,99h3v3h-3
	V99z M18,99h3v3h-3V99z M21,99h3v3h-3V99z M24,99h3v3h-3V99z M30,99h3v3h-3V99z M39,99h3v3h-3V99z M45,99h3v3h-3V99z M57,99h3v3h-3
	V99z M63,99h3v3h-3V99z M66,99h3v3h-3V99z M75,99h3v3h-3V99z M78,99h3v3h-3V99z M93,99h3v3h-3V99z M96,99h3v3h-3V99z M102,99h3v3h-3
	V99z M105,99h3v3h-3V99z M12,102h3v3h-3V102z M18,102h3v3h-3V102z M21,102h3v3h-3V102z M24,102h3v3h-3V102z M30,102h3v3h-3V102z
	 M45,102h3v3h-3V102z M48,102h3v3h-3V102z M54,102h3v3h-3V102z M69,102h3v3h-3V102z M72,102h3v3h-3V102z M75,102h3v3h-3V102z
	 M78,102h3v3h-3V102z M96,102h3v3h-3V102z M102,102h3v3h-3V102z M105,102h3v3h-3V102z M108,102h3v3h-3V102z M12,105h3v3h-3V105z
	 M30,105h3v3h-3V105z M39,105h3v3h-3V105z M42,105h3v3h-3V105z M45,105h3v3h-3V105z M51,105h3v3h-3V105z M63,105h3v3h-3V105z
	 M66,105h3v3h-3V105z M72,105h3v3h-3V105z M75,105h3v3h-3V105z M78,105h3v3h-3V105z M87,105h3v3h-3V105z M90,105h3v3h-3V105z
	 M102,105h3v3h-3V105z M12,108h3v3h-3V108z M15,108h3v3h-3V108z M18,108h3v3h-3V108z M21,108h3v3h-3V108z M24,108h3v3h-3V108z
	 M27,108h3v3h-3V108z M30,108h3v3h-3V108z M60,108h3v3h-3V108z M63,108h3v3h-3V108z M75,108h3v3h-3V108z M84,108h3v3h-3V108z
	 M99,108h3v3h-3V108z M102,108h3v3h-3V108z M105,108h3v3h-3V108z"/>
</svg>
